<?xml version="1.0" encoding="utf-8"?>
<!-- Generator: Adobe Illustrator 19.0.0, SVG Export Plug-In . SVG Version: 6.00 Build 0)  -->
<svg version="1.1" id="Layer_1" xmlns="http://www.w3.org/2000/svg" xmlns:xlink="http://www.w3.org/1999/xlink" x="0px" y="0px"
	 width="22.2px" height="20px" viewBox="-479.9 846.5 22.2 20" style="enable-background:new -479.9 846.5 22.2 20;"
	 xml:space="preserve">
<style type="text/css">
	.st0{fill:#FB2F51;}
</style>
<g>
	<path id="XMLID_35_" class="st0" d="M-462.6,852.7L-462.6,852.7h-1.8c-0.3,0-0.6,0-1,0h0l0,0c-0.2,0.4-0.4,0.7-0.6,1.1l-2.7,4.6
		l-0.2-0.4c-0.4-0.6-0.9-1.6-1.5-2.5c-0.6-1.1-1.2-2.1-1.6-2.8c-0.1-0.1-0.1-0.1-0.4-0.1c-0.1,0-0.2,0-0.3,0h-0.1c-0.9,0-1,0-1.5,0
		c-0.3,0-0.7,0-1.6,0.1h-0.1l5.7,9.9l1.3-2.2c0.4-0.6,0.7-1.3,1.1-1.9l0.8-1.3c0.7-1.2,1.4-2.3,2-3.5c0.1-0.2,0.3-0.2,0.4-0.2
		c0.1,0,0.2,0,0.4,0c0.1,0,0.2,0,0.2,0h1.2l-3.1,5.5l-2.3,4l0.9,0l0,0c0.2-0.3,0.4-0.6,0.5-0.9l0.6-1.2v0.1l0.2-0.4
		c0.5-0.9,1-1.7,1.6-2.7c0.8-1.3,1.5-2.6,2.2-3.9l0.8-1.3L-462.6,852.7z M-469.2,859.3l-0.8,1.4c-0.1,0.1-0.2,0.1-0.2,0.1
		c-0.1,0-0.2-0.1-0.2-0.1l-4.2-7.2h0.5h1.5c0.2,0,0.3,0.2,0.4,0.3c0.4,0.7,0.9,1.5,1.3,2.2L-469.2,859.3z"/>
	<path id="XMLID_38_" class="st0" d="M-458.3,848.8c-0.9-1.5-2.3-2.3-3.9-2.2c-1.1,0.1-2.2,0.2-3.2,0.3h-0.1
		c-0.4,0.1-0.8,0.1-1.3,0.1c-0.8,0.1-1.7,0.2-2.5,0.3l-0.4,0.1c-1.9,0.2-3.9,0.4-5.8,0.6c-1.3,0.1-2.5,0.8-3.3,1.8
		c-0.8,1-1.2,2.3-1,3.5c0.2,1.5,0.4,2.9,0.6,4.4l-0.1,0l-0.1,0v0.1l0.2,0c0.2,1.1,0.3,2.2,0.5,3.4c0.2,1.4,0.6,2.5,1.3,3.4
		c1,1.3,2.1,2,3.5,1.9c0.2,0,0.3,0,0.5,0c0.1,0,0.2,0,0.4,0c0.1,0,0.1,0,0.2,0h6.1h0.3c1,0,2.2,0,3.4,0c0.4,0,0.7-0.1,0.9-0.2
		c1.8-0.7,3-2.1,3.4-4.1c0.2-1.1,0.3-2.1,0.4-3.2v0c0-0.4,0.1-0.8,0.1-1.2c0.1-0.6,0.1-1.2,0.1-1.7v-0.1c0-0.3,0.1-0.7,0.1-1
		c0.1-0.9,0.2-1.8,0.2-2.7l0.1-1.2v0C-457.7,850.3-457.9,849.5-458.3,848.8z M-458.5,851.1l-0.1,1.2c-0.1,0.9-0.2,1.8-0.2,2.7
		c0,0.4-0.1,0.7-0.1,1v0.1c-0.1,0.5-0.1,1.1-0.1,1.7c0,0.4-0.1,0.8-0.1,1.2c-0.1,1-0.2,2.1-0.4,3.1c-0.3,1.7-1.3,2.9-2.8,3.5
		c-0.2,0.1-0.4,0.1-0.7,0.1c-1.2,0-2.3,0-3.4,0h-0.2h-6.1h0c-0.1,0-0.3,0-0.5,0c-0.1,0-0.2,0-0.4,0c-0.1,0-0.1,0-0.2,0
		c0,0-0.1,0-0.1,0c-1.1,0-1.9-0.5-2.7-1.6c-0.6-0.8-1-1.8-1.1-3c-0.2-1.2-0.3-2.3-0.5-3.5v0c-0.2-1.4-0.4-2.9-0.6-4.4
		c-0.1-1,0.2-2,0.8-2.9c0.7-0.9,1.7-1.4,2.7-1.5c1.9-0.2,3.9-0.4,5.8-0.6l0.2,0c0.9-0.1,1.8-0.2,2.7-0.3c0.4-0.1,0.9-0.1,1.3-0.2
		c1-0.1,2.1-0.2,3.2-0.3c1.3-0.1,2.4,0.5,3.2,1.8C-458.7,849.8-458.5,850.4-458.5,851.1L-458.5,851.1L-458.5,851.1L-458.5,851.1z"/>
</g>
</svg>
