<?xml version="1.0" encoding="utf-8"?>
<!-- Generator: Adobe Illustrator 19.0.0, SVG Export Plug-In . SVG Version: 6.00 Build 0)  -->
<svg version="1.1" id="Layer_1" xmlns="http://www.w3.org/2000/svg" xmlns:xlink="http://www.w3.org/1999/xlink" x="0px" y="0px"
	 width="50px" height="52px" viewBox="-280 371 50 52" style="enable-background:new -280 371 50 52;" xml:space="preserve">
<style type="text/css">
	.st0{fill:#FF2D20;}
</style>
<title>Logomark</title>
<path class="st0" d="M-230.4,382.6c0,0.1,0,0.1,0,0.2v11c0,0.3-0.2,0.6-0.4,0.7l-9.2,5.3v10.5c0,0.3-0.2,0.5-0.4,0.7l-19.2,11.1
	c0,0-0.1,0-0.1,0.1c0,0,0,0-0.1,0c-0.1,0-0.3,0-0.4,0c0,0,0,0-0.1,0c0,0-0.1,0-0.1-0.1l-19.2-11.1c-0.2-0.1-0.4-0.4-0.4-0.7v-32.9
	c0-0.1,0-0.1,0-0.2c0,0,0,0,0-0.1c0,0,0-0.1,0.1-0.1c0,0,0,0,0.1-0.1c0,0,0-0.1,0.1-0.1c0,0,0.1,0,0.1-0.1c0,0,0.1-0.1,0.1-0.1h0
	l9.6-5.5c0.2-0.1,0.6-0.1,0.8,0l9.6,5.5h0c0,0,0.1,0,0.1,0.1c0,0,0.1,0,0.1,0.1c0,0,0,0.1,0.1,0.1c0,0,0,0,0.1,0.1
	c0,0,0,0.1,0.1,0.1c0,0,0,0,0,0.1c0,0.1,0,0.1,0,0.2v20.6l8-4.6v-10.5c0-0.1,0-0.1,0-0.2c0,0,0,0,0-0.1c0,0,0-0.1,0.1-0.1
	c0,0,0,0,0.1-0.1c0,0,0-0.1,0.1-0.1c0,0,0.1,0,0.1-0.1c0,0,0.1-0.1,0.1-0.1h0l9.6-5.5c0.2-0.1,0.6-0.1,0.8,0l9.6,5.5
	c0,0,0.1,0,0.1,0.1c0,0,0.1,0,0.1,0.1c0,0,0,0.1,0.1,0.1c0,0,0,0,0.1,0.1C-230.4,382.4-230.4,382.5-230.4,382.6
	C-230.4,382.5-230.4,382.5-230.4,382.6z M-231.9,393.3v-9.1l-3.4,1.9l-4.6,2.7v9.1L-231.9,393.3L-231.9,393.3z M-241.6,409.8v-9.1
	l-4.6,2.6l-13.1,7.4v9.2C-259.2,419.9-241.6,409.8-241.6,409.8z M-278.4,378.7v31.1l17.6,10.1v-9.2l-9.2-5.2l0,0l0,0
	c0,0-0.1,0-0.1-0.1c0,0-0.1,0-0.1-0.1l0,0c0,0,0-0.1-0.1-0.1c0,0,0,0-0.1-0.1l0,0c0,0,0-0.1,0-0.1c0,0,0-0.1,0-0.1v0
	c0,0,0-0.1,0-0.1c0,0,0-0.1,0-0.1v0v-21.5l-4.6-2.7L-278.4,378.7L-278.4,378.7z M-269.6,372.7l-8,4.6l8,4.6l8-4.6L-269.6,372.7
	L-269.6,372.7z M-265.4,401.5l4.6-2.7v-20.1l-3.4,1.9l-4.6,2.7v20.1C-268.8,403.4-265.4,401.5-265.4,401.5z M-240.8,378.2l-8,4.6
	l8,4.6l8-4.6C-232.8,382.8-240.8,378.2-240.8,378.2z M-241.6,388.8l-4.6-2.7l-3.4-1.9v9.1l4.6,2.7l3.4,1.9
	C-241.6,397.9-241.6,388.8-241.6,388.8z M-260,409.3l11.7-6.7l5.9-3.4l-8-4.6l-9.2,5.3l-8.4,4.8C-268,404.8-260,409.3-260,409.3z"/>
</svg>
