<?xml version="1.0" encoding="utf-8"?>
<!-- Generator: Adobe Illustrator 19.0.0, SVG Export Plug-In . SVG Version: 6.00 Build 0)  -->
<svg version="1.1" id="Layer_1" xmlns="http://www.w3.org/2000/svg" xmlns:xlink="http://www.w3.org/1999/xlink" x="0px" y="0px"
	 width="29.9px" height="20px" viewBox="-84 91 29.9 20" style="enable-background:new -84 91 29.9 20;" xml:space="preserve">
<style type="text/css">
	.st0{fill:#00DC82;}
</style>
<path class="st0" d="M-67.2,111H-56c0.4,0,0.7-0.1,1-0.3c0.3-0.2,0.6-0.4,0.7-0.7c0.2-0.3,0.3-0.6,0.3-1s-0.1-0.7-0.3-1l-7.5-12.9
	c-0.2-0.3-0.4-0.6-0.7-0.7c-0.3-0.2-0.7-0.3-1-0.3c-0.4,0-0.7,0.1-1,0.3c-0.3,0.2-0.6,0.4-0.7,0.7l-1.9,3.3l-3.7-6.4
	c-0.2-0.3-0.4-0.6-0.7-0.7c-0.3-0.2-0.7-0.3-1-0.3c-0.4,0-0.7,0.1-1,0.3c-0.3,0.2-0.6,0.4-0.7,0.7l-9.3,16c-0.2,0.3-0.3,0.6-0.3,1
	s0.1,0.7,0.3,1c0.2,0.3,0.4,0.6,0.7,0.7c0.3,0.2,0.7,0.3,1,0.3h7c2.8,0,4.8-1.2,6.2-3.6l3.4-5.9l1.8-3.1l5.5,9.4h-7.3L-67.2,111z
	 M-75.1,107.9l-4.9,0l7.3-12.6l3.7,6.3l-2.4,4.2C-72.4,107.3-73.4,107.9-75.1,107.9z"/>
</svg>
