<?xml version="1.0" encoding="UTF-8"?>
<!-- Generator: Adobe Illustrator 22.1.0, SVG Export Plug-In . SVG Version: 6.00 Build 0)  -->
<svg version="1.1" id="Layer_1" xmlns="http://www.w3.org/2000/svg" xmlns:xlink="http://www.w3.org/1999/xlink" x="0px" y="0px" viewBox="0 0 346.6 129" style="enable-background:new 0 0 346.6 129;" xml:space="preserve">
<style type="text/css">
	.st0{fill:#4BC0B2;}
	.st1{fill:#90298D;}
	.st2{fill:#E01669;}
	.st3{fill:#0B67B2;}
	.st4{fill:#FFE500;}
	.st5{fill:#9BC43C;}
	.st6{fill:#46AC48;}
	.st7{fill:#61308F;}
	.st8{fill:#B5218E;}
	.st9{fill:#EE2D27;}
	.st10{fill:#CAD52B;}
	.st11{fill:#E35926;}
	.st12{fill:#F7B01A;}
	.st13{fill:#02A7DA;}
	.st14{fill:#025492;}
	.st15{fill:#FFFFFF;}
	.st16{fill:#83C341;}
	.st17{fill:#1F9E86;}
	.st18{fill:#F16A31;}
	.st19{fill:#D91F5B;}
	.st20{fill:#B41F6A;}
	.st21{fill:#7A2981;}
	.st22{fill:#B51E4F;}
	.st23{fill:#D91D62;}
	.st24{fill:#FED600;}
	.st25{fill:#F78D1E;}
</style>
<g>
	<polygon class="st0" points="107.1,40.3 84.6,53 107.1,65.8  "/>
	<polygon class="st1" points="39.6,53.1 17.1,65.7 39.6,78.5  "/>
	<polygon class="st2" points="39.6,78.5 17.1,91.2 39.6,104  "/>
	<polygon class="st3" points="84.6,27.6 62.1,40.3 84.6,53.1  "/>
	<polygon class="st4" points="84.6,78.5 62.1,91.2 84.6,104  "/>
	<polygon class="st5" points="107.1,65.8 84.6,78.4 107.1,91.2  "/>
	<polygon class="st6" points="84.6,53.1 107.1,65.7 84.6,78.5  "/>
	<polygon class="st7" points="17.1,40.3 39.6,53 17.1,65.8  "/>
	<polygon class="st8" points="17.1,65.8 39.6,78.4 17.1,91.2  "/>
	<polygon class="st9" points="39.6,78.5 62.1,91.2 39.6,104  "/>
	<polygon class="st10" points="84.6,78.5 107.1,91.2 84.6,104  "/>
	<polygon class="st11" points="62.1,91.2 39.6,103.9 62.1,116.7  "/>
	<polygon class="st12" points="62.1,91.2 84.6,103.9 62.1,116.7  "/>
	<polygon class="st13" points="84.6,27.6 107.1,40.3 84.6,53.1  "/>
	<polygon class="st14" points="62.1,14.9 84.6,27.5 62.1,40.3  "/>
	<polygon class="st15" points="49.1,67.7 68.1,56.2 68.2,78.5 61.6,67.6  "/>
	<polygon class="st16" points="32.3,34 32.3,38.3 36.7,38.3  "/>
	<polygon class="st17" points="36.7,38.3 36.8,34 32.4,33.9  "/>
	<polygon class="st18" points="46.3,38 46.3,41.6 49.9,41.6  "/>
	<polygon class="st19" points="49.9,41.7 50,38.1 46.3,38  "/>
	<polygon class="st20" points="49.2,24.6 49.2,30.6 55.3,30.6  "/>
	<polygon class="st21" points="55.2,30.6 55.4,24.7 49.3,24.6  "/>
	<polygon class="st22" points="20.4,23.8 20.4,30.6 27.3,30.6  "/>
	<polygon class="st23" points="27.2,30.6 27.4,23.9 20.5,23.8  "/>
	<polygon class="st24" points="32.3,13.5 32.3,24.6 43.7,24.6  "/>
	<polygon class="st25" points="43.5,24.8 43.8,13.6 32.5,13.4  "/>
</g>
<g>
	<g>
		<path class="st15" d="M214.8,18.9l-13.5,17.4h-20.2v49.9h-20.9V36.2h-27.7L146,18.9H214.8z"/>
		<path class="st15" d="M241.4,86.2h-20.9V18.9h20.9V86.2z"/>
		<path class="st15" d="M336.4,18.9l-13.4,17.4h-47.6c-2.6,0-3.8,0.9-3.8,2.8c0,1.8,1.3,2.8,3.8,2.8h34.3c8.2,0,15,2,20.4,6    c5.7,4.2,8.5,9.7,8.5,16.4c0,6.7-2.9,12-8.6,16.1c-5.3,3.9-12.1,5.9-20.3,5.9h-61.5l13.4-17.4h48.1c2.2,0,4.1-0.4,5.9-1.1    c2.2-0.9,3.4-2.2,3.4-3.8c0-1.7-1.1-3-3.4-3.8c-1.7-0.6-3.6-0.9-5.9-0.9h-34.3c-7.6,0-13.9-1.7-19-5.2c-5.5-3.7-8.2-8.7-8.2-14.8    c0-6.2,2.7-11.2,8.2-14.9c5.1-3.5,11.4-5.2,19-5.2H336.4z"/>
	</g>
	<g>
		<path class="st15" d="M164.3,98.5c2.3,0,4.1,0.6,5.5,1.9c1.4,1.3,2.1,3,2.1,5.1c0,2.1-0.7,3.8-2.1,5.1c-1.4,1.3-3.2,1.9-5.5,1.9    h-4.8v-14H164.3z M162.4,110.4h1.9c1.5,0,2.6-0.4,3.4-1.3c0.8-0.9,1.2-2.1,1.2-3.5c0-1.5-0.4-2.7-1.2-3.5c-0.8-0.9-2-1.3-3.4-1.3    h-1.9V110.4z"/>
		<path class="st15" d="M177.2,98.6c0,0.5-0.2,0.9-0.5,1.2c-0.3,0.3-0.7,0.5-1.2,0.5c-0.5,0-0.9-0.2-1.2-0.5    c-0.3-0.3-0.5-0.7-0.5-1.2c0-0.5,0.2-0.9,0.5-1.2c0.3-0.3,0.7-0.5,1.2-0.5c0.5,0,0.9,0.2,1.2,0.5    C177.1,97.7,177.2,98.1,177.2,98.6z M174.1,112.6v-11.1h2.8v11.1H174.1z"/>
		<path class="st15" d="M180.7,111.1c-1-1.1-1.5-2.5-1.5-4.1s0.5-3,1.5-4.1c1-1.1,2.3-1.6,3.8-1.6c1.5,0,2.7,0.6,3.5,1.9v-1.7h2.8    v11.2c0,1.6-0.5,2.9-1.4,3.9c-0.9,1-2.3,1.5-4,1.5c-1.7,0-3-0.4-4-1.1c-1-0.7-1.6-1.7-1.7-3h2.8c0.2,0.5,0.5,0.9,1,1.2    c0.5,0.3,1.1,0.4,1.9,0.4c0.8,0,1.4-0.2,1.9-0.7c0.5-0.5,0.8-1.2,0.8-2.2v-2c-0.8,1.4-2,2-3.5,2    C182.9,112.7,181.7,112.2,180.7,111.1z M187.1,109.4c0.6-0.6,0.9-1.4,0.9-2.4c0-1-0.3-1.8-0.9-2.4c-0.6-0.6-1.3-0.9-2.1-0.9    c-0.8,0-1.5,0.3-2.1,0.9c-0.6,0.6-0.9,1.4-0.9,2.4c0,1,0.3,1.8,0.9,2.4c0.6,0.6,1.3,0.9,2.1,0.9    C185.8,110.3,186.5,110,187.1,109.4z"/>
		<path class="st15" d="M196.9,98.6c0,0.5-0.2,0.9-0.5,1.2c-0.3,0.3-0.7,0.5-1.2,0.5s-0.9-0.2-1.2-0.5c-0.3-0.3-0.5-0.7-0.5-1.2    c0-0.5,0.2-0.9,0.5-1.2c0.3-0.3,0.7-0.5,1.2-0.5s0.9,0.2,1.2,0.5C196.8,97.7,196.9,98.1,196.9,98.6z M193.8,112.6v-11.1h2.8v11.1    H193.8z"/>
		<path class="st15" d="M204,110.2h1.3v2.4h-1.8c-1.1,0-2-0.3-2.6-0.8c-0.6-0.5-0.9-1.4-0.9-2.6v-5.5h-1.2v-2.3h1.2v-2.8h2.8v2.8    h2.5v2.3h-2.5v5.5c0,0.4,0.1,0.6,0.3,0.8C203.2,110.1,203.5,110.2,204,110.2z"/>
		<path class="st15" d="M210.7,98.6c0,0.5-0.2,0.9-0.5,1.2c-0.3,0.3-0.7,0.5-1.2,0.5s-0.9-0.2-1.2-0.5c-0.3-0.3-0.5-0.7-0.5-1.2    c0-0.5,0.2-0.9,0.5-1.2c0.3-0.3,0.7-0.5,1.2-0.5s0.9,0.2,1.2,0.5C210.5,97.7,210.7,98.1,210.7,98.6z M207.5,112.6v-11.1h2.8v11.1    H207.5z"/>
		<path class="st15" d="M212.8,104.7c0-1,0.4-1.8,1.2-2.4c0.8-0.7,1.9-1,3.3-1s2.4,0.3,3.3,1c0.8,0.7,1.3,1.5,1.3,2.6h-2.9    c-0.1-0.9-0.7-1.4-1.7-1.4c-0.5,0-1,0.1-1.2,0.3c-0.3,0.2-0.4,0.5-0.4,0.9c0,0.4,0.2,0.7,0.7,0.9c0.4,0.2,1,0.4,1.6,0.5    c0.6,0.1,1.3,0.3,1.9,0.5s1.2,0.5,1.6,1s0.7,1.1,0.7,1.8c0,1-0.4,1.8-1.3,2.5c-0.9,0.6-1.9,0.9-3.3,0.9c-1.3,0-2.4-0.3-3.3-0.9    c-0.8-0.6-1.3-1.5-1.4-2.7h2.9c0.1,0.9,0.7,1.4,1.8,1.4c0.5,0,0.9-0.1,1.3-0.4c0.3-0.2,0.5-0.5,0.5-0.9c0-0.4-0.2-0.7-0.7-0.9    c-0.4-0.2-1-0.4-1.6-0.5c-0.6-0.1-1.3-0.3-1.9-0.4s-1.2-0.5-1.6-0.9C213,106,212.8,105.4,212.8,104.7z"/>
		<path class="st15" d="M227.5,98.6c0,0.5-0.2,0.9-0.5,1.2c-0.3,0.3-0.7,0.5-1.2,0.5s-0.9-0.2-1.2-0.5c-0.3-0.3-0.5-0.7-0.5-1.2    c0-0.5,0.2-0.9,0.5-1.2c0.3-0.3,0.7-0.5,1.2-0.5s0.9,0.2,1.2,0.5C227.3,97.7,227.5,98.1,227.5,98.6z M224.3,112.6v-11.1h2.8v11.1    H224.3z"/>
		<path class="st15" d="M233,101.4v1.7c0.7-1.2,1.9-1.8,3.5-1.8c1.3,0,2.3,0.4,3.1,1.3c0.8,0.8,1.2,2,1.2,3.5v6.6H238v-6.2    c0-0.9-0.2-1.5-0.7-2c-0.4-0.5-1-0.7-1.8-0.7c-0.8,0-1.4,0.2-1.8,0.7c-0.4,0.5-0.7,1.1-0.7,2v6.2h-2.8v-11.1H233z"/>
		<path class="st15" d="M244.4,111.1c-1-1.1-1.5-2.5-1.5-4.1s0.5-3,1.5-4.1c1-1.1,2.3-1.6,3.8-1.6c1.5,0,2.7,0.6,3.5,1.9v-1.7h2.8    v11.2c0,1.6-0.5,2.9-1.4,3.9c-0.9,1-2.3,1.5-4,1.5c-1.7,0-3-0.4-4-1.1c-1-0.7-1.6-1.7-1.7-3h2.8c0.2,0.5,0.5,0.9,1,1.2    c0.5,0.3,1.1,0.4,1.9,0.4c0.8,0,1.4-0.2,1.9-0.7c0.5-0.5,0.8-1.2,0.8-2.2v-2c-0.8,1.4-2,2-3.5,2    C246.7,112.7,245.4,112.2,244.4,111.1z M250.8,109.4c0.6-0.6,0.9-1.4,0.9-2.4c0-1-0.3-1.8-0.9-2.4c-0.6-0.6-1.3-0.9-2.1-0.9    c-0.8,0-1.5,0.3-2.1,0.9c-0.6,0.6-0.9,1.4-0.9,2.4c0,1,0.3,1.8,0.9,2.4c0.6,0.6,1.3,0.9,2.1,0.9    C249.6,110.3,250.2,110,250.8,109.4z"/>
		<path class="st15" d="M263.6,98.5h5.7c1.4,0,2.6,0.3,3.4,1c0.8,0.7,1.2,1.6,1.2,2.7c0,1.6-0.9,2.6-2.7,3.2    c0.9,0.1,1.7,0.5,2.2,1.2c0.6,0.7,0.8,1.4,0.8,2.3c0,1.1-0.4,2-1.2,2.7c-0.8,0.7-2,1-3.4,1h-6V98.5z M266.4,100.7v3.6h2.6    c0.6,0,1.1-0.2,1.5-0.5c0.4-0.3,0.6-0.8,0.6-1.3c0-0.6-0.2-1-0.6-1.3c-0.4-0.3-0.9-0.5-1.5-0.5H266.4z M266.4,110.4h2.9    c0.6,0,1.1-0.2,1.5-0.5c0.4-0.3,0.6-0.8,0.6-1.4s-0.2-1.1-0.6-1.4c-0.4-0.3-0.9-0.5-1.5-0.5h-2.8V110.4z"/>
		<path class="st15" d="M279.5,101.4v2c0.8-1.4,1.8-2.1,3.3-2.1v2.9h-0.7c-0.8,0-1.5,0.2-1.9,0.6c-0.4,0.4-0.6,1.2-0.6,2.2v5.6h-2.8    v-11.1H279.5z"/>
		<path class="st15" d="M285.5,111.1c-1-1.1-1.5-2.5-1.5-4.1s0.5-3,1.5-4.1c1-1.1,2.3-1.6,3.8-1.6c1.5,0,2.7,0.6,3.5,1.9v-1.7h2.8    v11.1h-2.8v-1.9c-0.8,1.4-2,2-3.5,2C287.7,112.7,286.5,112.2,285.5,111.1z M291.9,109.4c0.6-0.6,0.9-1.4,0.9-2.4    c0-1-0.3-1.8-0.9-2.4c-0.6-0.6-1.3-0.9-2.1-0.9c-0.8,0-1.5,0.3-2.1,0.9c-0.6,0.6-0.9,1.4-0.9,2.4c0,1,0.3,1.8,0.9,2.4    c0.6,0.6,1.3,0.9,2.1,0.9C290.6,110.3,291.3,110,291.9,109.4z"/>
		<path class="st15" d="M301.4,101.4v1.7c0.7-1.2,1.9-1.8,3.5-1.8c1.3,0,2.3,0.4,3.1,1.3c0.8,0.8,1.2,2,1.2,3.5v6.6h-2.8v-6.2    c0-0.9-0.2-1.5-0.7-2c-0.4-0.5-1-0.7-1.8-0.7c-0.8,0-1.4,0.2-1.8,0.7c-0.4,0.5-0.7,1.1-0.7,2v6.2h-2.8v-11.1H301.4z"/>
		<path class="st15" d="M312.9,111.1c-1-1.1-1.5-2.5-1.5-4.1s0.5-3,1.5-4.1c1-1.1,2.3-1.6,3.8-1.6c1.5,0,2.7,0.6,3.5,1.9v-5.5h2.8    v14.9h-2.8v-1.9c-0.8,1.4-2,2-3.5,2C315.1,112.7,313.9,112.2,312.9,111.1z M319.3,109.4c0.6-0.6,0.9-1.4,0.9-2.4    c0-1-0.3-1.8-0.9-2.4c-0.6-0.6-1.3-0.9-2.1-0.9c-0.8,0-1.5,0.3-2.1,0.9c-0.6,0.6-0.9,1.4-0.9,2.4c0,1,0.3,1.8,0.9,2.4    c0.6,0.6,1.3,0.9,2.1,0.9C318,110.3,318.7,110,319.3,109.4z"/>
		<path class="st15" d="M325.4,104.7c0-1,0.4-1.8,1.2-2.4c0.8-0.7,1.9-1,3.3-1s2.4,0.3,3.3,1c0.8,0.7,1.3,1.5,1.3,2.6h-2.9    c-0.1-0.9-0.7-1.4-1.7-1.4c-0.5,0-1,0.1-1.2,0.3c-0.3,0.2-0.4,0.5-0.4,0.9c0,0.4,0.2,0.7,0.7,0.9c0.4,0.2,1,0.4,1.6,0.5    c0.6,0.1,1.3,0.3,1.9,0.5s1.2,0.5,1.6,1c0.4,0.5,0.7,1.1,0.7,1.8c0,1-0.4,1.8-1.3,2.5c-0.9,0.6-1.9,0.9-3.3,0.9    c-1.3,0-2.4-0.3-3.3-0.9c-0.8-0.6-1.3-1.5-1.4-2.7h2.9c0.1,0.9,0.7,1.4,1.8,1.4c0.5,0,0.9-0.1,1.3-0.4c0.3-0.2,0.5-0.5,0.5-0.9    c0-0.4-0.2-0.7-0.7-0.9c-0.4-0.2-1-0.4-1.6-0.5c-0.6-0.1-1.3-0.3-1.9-0.4s-1.2-0.5-1.6-0.9C325.6,106,325.4,105.4,325.4,104.7z"/>
	</g>
</g>
</svg>